PathFileType  4	(X/Y/Z) C:\Users\antoi\Documents\MyRepositories\mobilecap\ResultsAnalysis
DataRate	CameraRate	NumFrames	NumMarkers	Units	OrigDataRate	OrigDataStartFrame	OrigNumFrames
100.0	100.0	4	55	mm	100.0	684	781
Frame#	Time	r_knee			r_shank_antsup			r_ankle			r_calc			r_5meta			r_toe			L_knee			L_shank_antsup			L_ankle			L_calc			L_5meta			L_toe			r_mknee			r_mankle			L_mknee			L_mankle			r_sh2			r_sh3			r_sh4			L_sh2			L_sh3			r_thigh1			r_thigh2			r_thigh3			r_thigh4			r_thigh5			L_thigh1			L_thigh2			L_thigh3			L_thigh4			r.ASIS			r.PSIS			L.ASIS			L.PSIS			C7			R_Shoulder			L_Shoulder			R_Sternum			L_Sternum			R_humerus			R_elbow_med			R_elbow_lat			R_forearm			R_wrist_radius			R_wrist_ulna			L_humerus			L_elbow_med			L_elbow_lat			L_forearm			L_wrist_radius			L_wrist_ulna			R_HJC			L_HJC			R_HJC_reg			L_HJC_reg			
		X1	Y1	Z1	X2	Y2	Z2	X3	Y3	Z3	X4	Y4	Z4	X5	Y5	Z5	X6	Y6	Z6	X7	Y7	Z7	X8	Y8	Z8	X9	Y9	Z9	X10	Y10	Z10	X11	Y11	Z11	X12	Y12	Z12	X13	Y13	Z13	X14	Y14	Z14	X15	Y15	Z15	X16	Y16	Z16	X17	Y17	Z17	X18	Y18	Z18	X19	Y19	Z19	X20	Y20	Z20	X21	Y21	Z21	X22	Y22	Z22	X23	Y23	Z23	X24	Y24	Z24	X25	Y25	Z25	X26	Y26	Z26	X27	Y27	Z27	X28	Y28	Z28	X29	Y29	Z29	X30	Y30	Z30	X31	Y31	Z31	X32	Y32	Z32	X33	Y33	Z33	X34	Y34	Z34	X35	Y35	Z35	X36	Y36	Z36	X37	Y37	Z37	X38	Y38	Z38	X39	Y39	Z39	X40	Y40	Z40	X41	Y41	Z41	X42	Y42	Z42	X43	Y43	Z43	X44	Y44	Z44	X45	Y45	Z45	X46	Y46	Z46	X47	Y47	Z47	X48	Y48	Z48	X49	Y49	Z49	X50	Y50	Z50	X51	Y51	Z51	X52	Y52	Z52	X53	Y53	Z53	X54	Y54	Z54	X55	Y55	Z55	

684	6.83000000	-212.39331	553.75700	-452.23829	-188.07989	429.64409	-458.31194	-294.21961	100.81576	-448.23361	-360.54066	66.38135	-490.56476	-159.58267	36.79553	-403.81049	-123.84790	58.76201	-478.27596	-251.71336	543.77927	-806.07967	-218.33919	440.89517	-793.20127	-300.86602	97.61394	-799.66499	-361.85063	66.24847	-751.27380	-156.19227	35.84977	-829.01706	-125.52247	58.95901	-757.63731	-218.95420	533.95316	-581.09027	-266.93321	111.66345	-543.04122	-239.72981	534.10140	-675.21733	-275.42982	113.10828	-706.03043	-194.98972	314.37970	-475.53700	-248.87778	424.75306	-409.03586	-246.45183	307.24177	-408.25412	-298.15174	443.11173	-834.80536	-279.08276	323.96029	-851.03497	-98.57046	783.87374	-476.86356	-109.79457	671.93355	-488.95586	-142.36738	647.58703	-434.97016	-182.41458	781.95888	-402.53974	-192.14719	664.56241	-421.93652	-141.39082	792.69920	-820.49063	-150.46600	656.98679	-810.97537	-250.59998	797.06266	-852.62393	-259.18897	658.48479	-833.18450	-123.00094	1056.60681	-488.10540	-327.00860	1087.71617	-576.09317	-119.26427	1048.09865	-754.86866	-328.39833	1085.33866	-674.30820	-315.13712	1576.41294	-639.18432	-232.99246	1520.05971	-445.56764	-219.42267	1535.30319	-812.61721	-166.81561	1525.36023	-610.55804	-166.01952	1519.77948	-654.25544	-202.64112	1351.40294	-374.73421	-261.56747	1125.27690	-406.32838	-236.34914	1150.82092	-332.33067	-120.18231	1020.25802	-323.88310	-72.13899	911.62347	-312.52027	-102.93767	890.78965	-293.99249	-194.54858	1360.06395	-893.61878	-273.05287	1148.35316	-864.96569	-230.23019	1163.68444	-930.25453	-124.67324	1035.87184	-899.62730	-81.97608	926.90132	-918.91535	-116.57724	911.80568	-945.47236	-204.44299	975.55612	-522.88135	-199.57381	958.55346	-735.53969	-193.85686	974.65937	-523.15500	-196.34868	970.39649	-699.25556	
685	6.84000000	-212.48951	553.69381	-452.24519	-188.12206	429.63778	-458.32139	-294.20699	100.82921	-448.23383	-360.54648	66.39012	-490.54980	-159.57499	36.82261	-403.84552	-123.88993	58.78100	-478.26998	-251.73286	543.82445	-806.07379	-218.35498	440.94914	-793.22324	-300.86467	97.64313	-799.64392	-361.81861	66.25797	-751.28790	-156.19255	35.83676	-828.96656	-125.50507	58.99745	-757.61461	-218.95786	533.94870	-581.07950	-266.92711	111.68973	-543.03515	-239.77170	534.12100	-675.12333	-275.41876	113.13619	-706.02484	-195.00272	314.39297	-475.50071	-248.84827	424.76577	-408.94388	-246.39264	307.25695	-408.24954	-298.16421	443.14557	-834.81830	-279.08524	323.99919	-851.01569	-98.58094	783.90986	-476.84719	-109.85115	671.93421	-488.91949	-142.42760	647.57407	-434.90229	-182.40482	781.99219	-402.46954	-192.13917	664.56096	-421.85983	-141.42010	792.71944	-820.49720	-150.48314	657.01427	-810.96560	-250.63916	797.10504	-852.61700	-259.20859	658.51000	-833.10003	-123.05047	1056.67489	-488.18071	-327.10264	1087.78555	-576.04463	-119.38244	1048.13967	-754.79990	-328.45893	1085.36092	-674.28937	-315.25663	1576.56392	-639.29105	-233.03771	1520.15435	-445.57714	-219.49514	1535.32565	-812.61321	-166.88269	1525.42461	-610.56438	-166.09458	1519.81896	-654.26222	-202.66261	1351.52021	-374.67278	-261.46053	1125.29477	-406.26102	-236.33955	1150.89862	-332.33951	-120.23218	1020.31080	-323.91342	-72.09300	911.74566	-312.45447	-102.85932	890.99918	-293.84643	-194.55290	1360.09098	-893.61051	-272.98163	1148.30967	-865.00125	-230.14261	1163.74871	-930.35093	-124.58211	1035.92774	-899.56660	-81.84137	926.95558	-918.82404	-116.45616	911.87321	-945.36786	-204.50107	975.62323	-522.85518	-199.67218	958.58671	-735.51146	-193.97578	974.81047	-523.19535	-196.40559	970.46685	-699.19999	
686	6.85000000	-212.52524	553.74247	-452.23203	-188.17806	429.62633	-458.34652	-294.18809	100.83274	-448.22460	-360.56321	66.39518	-490.55942	-159.56342	36.85222	-403.87229	-123.92997	58.78582	-478.26359	-251.74375	543.85002	-806.07059	-218.36663	440.98241	-793.23653	-300.86318	97.65305	-799.62764	-361.81401	66.24920	-751.30444	-156.19547	35.79531	-828.90088	-125.49002	59.01956	-757.61470	-218.96083	533.94787	-581.07620	-266.92674	111.69778	-543.03446	-239.85964	534.14220	-674.97250	-275.44968	113.09783	-706.09356	-195.04133	314.43877	-475.47151	-248.82293	424.70740	-408.87513	-246.32237	307.34127	-408.26834	-298.17100	443.16470	-834.83504	-279.08014	324.02299	-851.00667	-98.58055	783.92995	-476.83759	-109.86290	671.97082	-488.91207	-142.45494	647.58978	-434.85721	-182.46153	782.02220	-402.51242	-192.14453	664.60405	-421.80973	-141.45907	792.74666	-820.51281	-150.49608	657.02671	-810.95027	-250.66510	797.13814	-852.64071	-259.22422	658.51606	-833.03464	-123.04825	1056.82744	-488.26096	-327.17884	1087.88060	-576.02515	-119.45680	1048.20155	-754.76757	-328.50897	1085.37339	-674.27437	-315.35279	1576.69844	-639.41914	-233.09224	1520.29910	-445.60497	-219.56840	1535.33360	-812.60883	-166.95329	1525.47562	-610.55179	-166.18720	1519.83977	-654.29222	-202.69276	1351.66291	-374.61710	-261.38288	1125.37781	-406.20996	-236.32208	1151.02238	-332.30376	-120.28716	1020.39057	-323.93602	-72.05214	911.87118	-312.42200	-102.76069	891.21377	-293.66929	-194.55671	1360.10706	-893.60635	-272.89088	1148.28884	-865.01525	-230.07535	1163.78727	-930.40943	-124.49767	1035.97455	-899.54318	-81.71173	927.01484	-918.78676	-116.34614	911.91251	-945.30335	-204.50085	975.75076	-522.82527	-199.71971	958.62799	-735.47514	-194.03532	975.03089	-523.21055	-196.41707	970.54135	-699.13982	
687	6.86000000	-212.50304	553.84293	-452.19753	-188.20722	429.64137	-458.35810	-294.18865	100.83781	-448.22863	-360.57311	66.40367	-490.58207	-159.55801	36.84350	-403.88608	-123.92910	58.77563	-478.27453	-251.74199	543.83226	-806.06626	-218.36665	440.96035	-793.20262	-300.86728	97.64294	-799.62871	-361.83905	66.25707	-751.27698	-156.19774	35.78880	-828.89393	-125.49970	59.03186	-757.65194	-218.97128	533.95175	-581.07860	-266.93026	111.68868	-543.03674	-239.92194	534.14914	-674.88889	-275.48585	113.05695	-706.16023	-195.07937	314.46209	-475.45770	-248.88090	424.61428	-408.83312	-246.35251	307.38937	-408.29271	-298.17894	443.15612	-834.80730	-279.07562	324.00832	-851.00485	-98.61245	783.92243	-476.85878	-109.83290	672.01103	-488.93778	-142.48382	647.60759	-434.88623	-182.56180	782.04983	-402.57159	-192.21406	664.62068	-421.88490	-141.49060	792.75057	-820.50426	-150.50999	657.03046	-810.94103	-250.69405	797.13964	-852.65798	-259.23963	658.50878	-833.02013	-123.07676	1056.77730	-488.23506	-327.21347	1087.88033	-576.01851	-119.50187	1048.24520	-754.76833	-328.54713	1085.38062	-674.25948	-315.42865	1576.69048	-639.46211	-233.14398	1520.40229	-445.61632	-219.64897	1535.32194	-812.59271	-167.02147	1525.51062	-610.52413	-166.29905	1519.85996	-654.34916	-202.70687	1351.81102	-374.60209	-261.36464	1125.50256	-406.18739	-236.31396	1151.13466	-332.27055	-120.28107	1020.50616	-323.80603	-72.03846	911.96270	-312.40371	-102.68561	891.37089	-293.57667	-194.56429	1360.11464	-893.60606	-272.79889	1148.27932	-864.99673	-230.03451	1163.78637	-930.40898	-124.42158	1036.01323	-899.52815	-81.57578	927.07059	-918.78168	-116.22896	911.95750	-945.32072	-204.54023	975.71889	-522.84270	-199.75923	958.66227	-735.49804	-194.08648	975.02911	-523.19331	-196.47500	970.55222	-699.13808	
